<svg fill="#f38f19" xmlns="http://www.w3.org/2000/svg" xmlns:xlink="http://www.w3.org/1999/xlink" version="1.1" x="0px" y="0px" viewBox="0 0 66 66" enable-background="new 0 0 66 66" xml:space="preserve">
  <g>
    <path d="M38.4,18.3v-0.5c1.3-0.4,2.3-1.7,2.3-3.1c0-1.8-1.5-3.3-3.3-3.3c-0.7,0-1.3-0.6-1.3-1.3s0.6-1.3,1.3-1.3s1.3,0.6,1.3,1.3   c0,0.6,0.4,1,1,1s1-0.4,1-1c0-1.5-1-2.7-2.3-3.1V6.4c0-0.6-0.4-1-1-1s-1,0.4-1,1v0.5c-1.3,0.4-2.3,1.7-2.3,3.1   c0,1.8,1.5,3.3,3.3,3.3c0.7,0,1.3,0.6,1.3,1.3S38.1,16,37.4,16s-1.3-0.6-1.3-1.3c0-0.6-0.4-1-1-1s-1,0.4-1,1c0,1.5,1,2.7,2.3,3.1   v0.5c0,0.6,0.4,1,1,1S38.4,18.9,38.4,18.3z">
    </path>
    <path d="M49.3,12.3c0-6.5-5.3-11.8-11.8-11.8c-6.5,0-11.8,5.3-11.8,11.8c0,6.2,4.8,11.3,10.8,11.8v3c-2-2.9-5.3-4.7-9-4.7   c-0.6,0-1,0.4-1,1c0,5.8,4.4,10.5,10,11v3.3c-3.8,0.1-7.4,1.1-10.2,2.7c-5-1.9-9.8,0.1-12.2,1.4v-0.2c0-1.7-1.3-3-3-3H6.4   c-0.6,0-1,0.4-1,1s0.4,1,1,1H11c0.6,0,1,0.4,1,1c0,4.2,0,12.9,0,19.7c0,0.6-0.4,1-1,1H6.4c-0.6,0-1,0.4-1,1s0.4,1,1,1H11   c1.7,0,3-1.3,3-3v-0.6l14.3,4.4c2.1,0.6,4.3,0.3,6.2-0.9l24.5-16.4c1.4-1.1,1.9-3,1.1-4.5c-0.9-1.8-3.1-2.6-4.9-1.7l-3.5,1.5   c-2.4-3.1-7.3-5.1-12.9-5.5c5.4-0.7,9.5-5.3,9.5-10.9c0-0.6-0.4-1-1-1c-3.7,0-7,1.9-9,4.7v-6.4C44.5,23.6,49.3,18.5,49.3,12.3z    M28.4,24.5c4.1,0.5,7.4,3.8,7.9,7.9C32.2,32,28.9,28.7,28.4,24.5z M27.6,12.3c0-5.4,4.4-9.8,9.8-9.8c5.4,0,9.8,4.4,9.8,9.8   s-4.4,9.8-9.8,9.8C32,22.2,27.6,17.8,27.6,12.3z M56.2,43.5c0.8-0.4,1.8,0,2.2,0.8c0.3,0.7,0.1,1.6-0.5,2L33.5,62.6   c-1.3,0.9-3,1.1-4.5,0.7L14,58.6V44.1C15.8,43,22.7,39,29,44.3c0.2,0.2,0.4,0.2,0.6,0.2h9.7c2.9,0,2.7,4.2,0,4.2H28   c-0.6,0-1,0.4-1,1s0.4,1,1,1h11.3c1.1,0,2.1-0.4,2.9-1.2L56.2,43.5z M49.9,44l-6.5,2.9c0-0.1,0-0.1,0-0.2c0-2.3-1.8-4.1-4.1-4.1H30   c-0.5-0.4-1-0.8-1.5-1.1c2.5-1.2,5.7-1.8,8.9-1.8C42.7,39.7,47.5,41.4,49.9,44z M46.4,27.9c-0.5,4.1-3.8,7.4-7.9,7.9   C39,31.6,42.3,28.3,46.4,27.9z">
    </path>
  </g>
</svg>
