<?xml version="1.0" encoding="utf-8"?>
<!-- Generator: Adobe Illustrator 16.0.4, SVG Export Plug-In . SVG Version: 6.00 Build 0)  -->
<!DOCTYPE svg PUBLIC "-//W3C//DTD SVG 1.1 Basic//EN" "http://www.w3.org/Graphics/SVG/1.1/DTD/svg11-basic.dtd">
<svg version="1.1" baseProfile="basic" id="Layer_1"
	 xmlns="http://www.w3.org/2000/svg" xmlns:xlink="http://www.w3.org/1999/xlink" x="0px" y="0px" viewBox="0 0 1726.619 1448.919" preserveAspectRatio="none">
<linearGradient id="SVGID_1_" gradientUnits="userSpaceOnUse" x1="728.2842" y1="113.4634" x2="869.3048" y2="1306.2599">
	<stop  offset="0" style="stop-color:#2E3192"/>
	<stop  offset="1" style="stop-color:#00FFFF"/>
</linearGradient>
<path style="fill:url(#SVGID_1_);" d="M303.439,137.679c209.669-164.058,881.229-198.484,1068.516-9.695
	c174.13,175.527,418.429,1039.095,172.436,1061.873c-317.647,29.412-468.648,259.259-792.157,249.02
	c-289.614-9.165-570.393-214.292-689.745-339.239C-109.398,919.692,107.205,291.225,303.439,137.679z"/>
<path style="fill:#F2F2F2;" d="M152.233,258.484c-167.073,135.984-62.018,611.371,44.128,799.758
	c99.422,176.455,68.741,329.722,269.597,335.536c211.691,6.128,887.54,1.004,1005.883-176.471
	c122.944-184.374,304.275-740.585,152.94-901.961C1423.834,101.066,379.75,73.304,152.233,258.484z"/>
</svg>
