<svg fill="#f38f19" xmlns="http://www.w3.org/2000/svg" xmlns:xlink="http://www.w3.org/1999/xlink" version="1.1" x="0px" y="0px" viewBox="0 0 64 64" style="enable-background:new 0 0 64 64;" xml:space="preserve"><path d="M2,55v6c0,0.552,0.448,1,1,1h14c0.552,0,1-0.448,1-1v-6c0-3.14-1.823-5.856-4.463-7.165C15.027,46.743,16,44.985,16,43  c0-3.309-2.691-6-6-6s-6,2.691-6,6c0,1.985,0.973,3.743,2.463,4.835C3.823,49.144,2,51.86,2,55z M10,49  c0.335,0,0.662,0.034,0.982,0.088C10.936,49.596,10.52,50,10,50s-0.936-0.404-0.982-0.912C9.338,49.034,9.665,49,10,49z M10,39  c1.291,0,2.429,0.625,3.161,1.577C12.16,40.2,11.097,40,10,40s-2.16,0.2-3.161,0.577C7.571,39.625,8.709,39,10,39z M6.027,43.268  C7.205,42.451,8.563,42,10,42s2.795,0.451,3.973,1.268C13.832,45.347,12.114,47,10,47S6.168,45.347,6.027,43.268z M7.106,49.747  C7.44,51.039,8.605,52,10,52s2.56-0.961,2.894-2.253C14.744,50.771,16,52.741,16,55v5H4v-5C4,52.741,5.256,50.771,7.106,49.747z"></path><path d="M55,40v-8c0-3.672-2.214-6.833-5.374-8.231C51.065,22.672,52,20.945,52,19c0-3.309-2.691-6-6-6s-6,2.691-6,6  c0,1.945,0.934,3.671,2.372,4.768c-1.006,0.443-1.936,1.067-2.742,1.867C37.934,27.343,37,29.604,37,32v8c0,0.552,0.448,1,1,1h16  C54.552,41,55,40.552,55,40z M46,26.692l0.936,2.339L46,31.838l-0.936-2.807L46,26.692z M46,15c1.291,0,2.429,0.625,3.161,1.577  C48.16,16.2,47.097,16,46,16s-2.16,0.2-3.161,0.577C43.571,15.625,44.709,15,46,15z M42.027,19.268C43.205,18.451,44.563,18,46,18  s2.795,0.451,3.973,1.268C49.832,21.347,48.114,23,46,23S42.168,21.347,42.027,19.268z M53,39H39v-7  c0-1.865,0.728-3.625,2.044-4.951c0.954-0.947,2.131-1.583,3.407-1.871l-1.38,3.45c-0.087,0.22-0.095,0.463-0.02,0.688l2,6  C45.188,35.725,45.569,36,46,36s0.812-0.275,0.949-0.684l2-6c0.075-0.225,0.067-0.468-0.02-0.688l-1.38-3.45  C50.665,25.886,53,28.673,53,32V39z"></path><path d="M61.948,8.792c-0.119-0.355-0.427-0.614-0.798-0.671l-5.001-0.759l-2.244-4.786C53.741,2.224,53.388,2,53,2  s-0.741,0.224-0.905,0.576l-2.244,4.786L44.85,8.121c-0.371,0.057-0.679,0.315-0.798,0.671s-0.029,0.748,0.232,1.016l2,2.05  l1.432-1.396l-0.64-0.656l3.604-0.547c0.33-0.05,0.613-0.262,0.755-0.564L53,5.356l1.565,3.338c0.142,0.303,0.425,0.514,0.755,0.564  l3.604,0.547l-2.64,2.706c-0.221,0.227-0.322,0.545-0.271,0.858l0.61,3.76l-3.139-1.735l-0.968,1.75l4.94,2.73  C57.607,19.958,57.774,20,57.94,20c0.202,0,0.404-0.062,0.576-0.182c0.313-0.221,0.473-0.6,0.412-0.978l-0.859-5.292l3.648-3.739  C61.978,9.54,62.067,9.147,61.948,8.792z"></path><path d="M29,6H8C6.897,6,6,6.897,6,8v17c0,1.103,0.897,2,2,2h21c1.103,0,2-0.897,2-2v-5.674l5.725,1.636  c0.438,0.125,0.905-0.062,1.137-0.454c0.231-0.393,0.167-0.892-0.155-1.214L31,12.586V8C31,6.897,30.103,6,29,6z M33.564,17.979  l-2.014-0.576c-0.611-0.175-1.249-0.054-1.754,0.326C29.29,18.11,29,18.692,29,19.326V25H8V8h21v4.586  c0,0.534,0.208,1.036,0.586,1.414L33.564,17.979z"></path><path d="M26,59h13c1.103,0,2-0.897,2-2V46c0-1.103-0.897-2-2-2H26c-1.103,0-2,0.897-2,2v2.819l-4.835-0.806  c-0.446-0.075-0.885,0.159-1.074,0.569c-0.188,0.411-0.078,0.896,0.269,1.185l5.64,4.7V57C24,58.103,24.897,59,26,59z   M22.473,50.593l2.362,0.394c0.287,0.047,0.586-0.034,0.811-0.223C25.871,50.573,26,50.294,26,50v-4h13v11H26v-3  c0-0.297-0.132-0.578-0.36-0.768L22.473,50.593z"></path><rect x="28" y="48" width="2" height="2"></rect><rect x="32" y="48" width="5" height="2"></rect><rect x="28" y="53" width="2" height="2"></rect><rect x="32" y="53" width="5" height="2"></rect><path d="M15.962,19.547l-3.255-3.254l-1.414,1.414l4,4C15.48,21.895,15.735,22,16,22c0.009,0,0.018,0,0.026,0  c0.274-0.007,0.533-0.126,0.717-0.331l9-10l-1.486-1.338L15.962,19.547z">
</path>
</svg>
