<svg id="social-1" fill="#f38f19" xmlns="http://www.w3.org/2000/svg" xmlns:xlink="http://www.w3.org/1999/xlink" version="1.1" x="0px" y="0px" viewBox="0 0 96 96" enable-background="new 0 0 96 96" xml:space="preserve"><path d="M78.542,65.064c-5.51,0-10.197,3.53-11.956,8.441l-11.724-3.414c0.681-2.32,1.049-4.738,1.049-7.219  c0-7.687-3.413-14.586-8.797-19.279l11.866-9.447c3.077,2.977,7.154,4.646,11.53,4.646c4.971,0,9.56-2.148,12.731-5.928l0.018,0.021  l0.562-0.748l0.361-0.48l-0.017-0.02c1.945-2.793,2.982-6.054,2.982-9.482c0-9.174-7.464-16.637-16.638-16.637  c-9.173,0-16.636,7.463-16.636,16.637c0,3.431,1.038,6.692,2.983,9.483l-0.017,0.019l0.361,0.48l0.563,0.748l0.018-0.021  c0.053,0.063,0.108,0.124,0.163,0.188L45.93,42.62c-4.188-3.233-9.399-5.195-15.059-5.313l-2.578-7.513  c2.05-0.577,3.891-1.726,5.333-3.356l0.035,0.042l0.562-0.748l0.361-0.48l-0.017-0.02c1.244-1.853,1.906-4,1.906-6.253  c0-6.205-5.049-11.254-11.255-11.254c-6.205,0-11.253,5.049-11.253,11.254c0,2.255,0.662,4.401,1.906,6.254l-0.016,0.019l0.353,0.47  c0.003,0.004,0.006,0.008,0.009,0.012l0.563,0.747l0.035-0.041c2.135,2.414,5.142,3.794,8.403,3.794c0.541,0,1.072-0.05,1.598-0.124  l2.474,7.211C15.666,37.868,4.75,49.117,4.75,62.873c0,5.382,1.658,10.498,4.772,14.85l-0.017,0.02l0.361,0.48l0.562,0.748  l0.018-0.021c4.884,6.048,12.075,9.505,19.885,9.505s15.001-3.457,19.885-9.505l0.018,0.021l0.562-0.748l0.361-0.48l-0.017-0.02  c1.382-1.932,2.474-4.013,3.261-6.203l11.761,3.425c-0.208,0.911-0.328,1.855-0.328,2.828c0,2.572,0.764,5.021,2.197,7.126  l-0.016,0.019l0.353,0.47c0.003,0.004,0.006,0.008,0.009,0.012l0.563,0.747l0.034-0.04c2.414,2.782,5.845,4.375,9.569,4.375  c3.723,0,7.151-1.594,9.569-4.377l0.035,0.042l0.562-0.748l0.361-0.48l-0.017-0.02c1.434-2.107,2.197-4.556,2.197-7.125  C91.25,70.766,85.549,65.064,78.542,65.064z M70.511,37.293c-4.59,0-8.822-2.014-11.711-5.549c0.012-0.01,0.021-0.021,0.032-0.031  c0.065-0.06,0.142-0.117,0.212-0.176c0.116-0.097,0.231-0.193,0.359-0.288c0.083-0.062,0.175-0.121,0.263-0.183  c0.129-0.09,0.258-0.18,0.396-0.268c0.097-0.062,0.199-0.121,0.3-0.182c0.142-0.085,0.282-0.17,0.43-0.253  c0.106-0.06,0.217-0.118,0.327-0.178c0.149-0.08,0.3-0.16,0.454-0.238c0.114-0.058,0.229-0.114,0.346-0.171  c0.155-0.076,0.311-0.151,0.468-0.225c0.118-0.055,0.237-0.108,0.357-0.162c0.157-0.071,0.315-0.142,0.473-0.209  c0.119-0.052,0.238-0.103,0.356-0.151c0.159-0.067,0.317-0.133,0.476-0.196c0.115-0.047,0.23-0.093,0.346-0.139  c0.154-0.061,0.308-0.12,0.459-0.178c0.113-0.043,0.227-0.086,0.337-0.128c0.147-0.055,0.291-0.107,0.433-0.158  c0.105-0.038,0.211-0.077,0.312-0.112c0.141-0.05,0.275-0.097,0.408-0.143c0.092-0.032,0.187-0.065,0.274-0.096  c0.132-0.044,0.254-0.085,0.375-0.125c0.074-0.024,0.153-0.051,0.223-0.074c0.116-0.037,0.219-0.07,0.321-0.104  c0.062-0.02,0.13-0.041,0.186-0.06c0.096-0.029,0.176-0.055,0.254-0.078c0.042-0.013,0.092-0.029,0.128-0.04  c0.07-0.021,0.119-0.036,0.168-0.051c0.025-0.007,0.063-0.019,0.084-0.024c0.052-0.016,0.088-0.026,0.093-0.027l0.544-0.156v-3.128  l-0.478-0.186c-2.558-0.999-4.275-3.765-4.275-6.883c0-4.006,2.813-7.266,6.271-7.266c3.459,0,6.272,3.26,6.272,7.266  c0,3.119-1.718,5.885-4.275,6.883l-0.478,0.186v3.129l0.544,0.155c0.049,0.014,0.109,0.032,0.162,0.048  c0.061,0.018,0.144,0.043,0.237,0.072c0.425,0.13,1.169,0.365,2.08,0.688c0.179,0.063,0.362,0.129,0.553,0.199  c2.119,0.785,4.629,1.882,6.167,3.062c0.002,0.002,0.005,0.004,0.007,0.005c0.16,0.123,0.308,0.247,0.445,0.372  C79.335,35.279,75.102,37.293,70.511,37.293z M57.903,30.533c-1.657-2.481-2.528-5.36-2.528-8.377  c0-8.347,6.79-15.137,15.136-15.137c8.347,0,15.138,6.79,15.138,15.137c0,3.016-0.871,5.894-2.527,8.377  c-0.058-0.05-0.123-0.099-0.184-0.147c-0.077-0.063-0.153-0.127-0.234-0.189c-0.106-0.081-0.218-0.162-0.33-0.242  c-0.086-0.062-0.171-0.123-0.26-0.184c-0.119-0.08-0.242-0.158-0.366-0.236c-0.091-0.058-0.18-0.116-0.273-0.173  c-0.135-0.082-0.275-0.161-0.415-0.241c-0.089-0.051-0.175-0.103-0.265-0.152c-0.225-0.123-0.452-0.244-0.685-0.361  c-0.094-0.048-0.189-0.094-0.284-0.141c-0.15-0.074-0.3-0.148-0.452-0.221c-0.116-0.055-0.232-0.106-0.349-0.16  c-0.13-0.06-0.259-0.119-0.389-0.177c-0.121-0.053-0.241-0.104-0.362-0.156c-0.125-0.055-0.25-0.108-0.374-0.16  c-0.121-0.051-0.24-0.099-0.359-0.147c-0.123-0.05-0.245-0.1-0.367-0.147c-0.115-0.046-0.229-0.09-0.342-0.134  c-0.123-0.048-0.245-0.094-0.365-0.14c-0.107-0.04-0.212-0.079-0.315-0.118c-0.121-0.044-0.239-0.087-0.356-0.13  c-0.098-0.035-0.194-0.07-0.29-0.104c-0.117-0.041-0.229-0.08-0.34-0.119c-0.085-0.029-0.171-0.059-0.253-0.087  c-0.113-0.038-0.218-0.073-0.323-0.108c-0.072-0.024-0.146-0.049-0.215-0.071c-0.103-0.034-0.194-0.063-0.287-0.093  c-0.06-0.02-0.123-0.04-0.179-0.058c-0.139-0.044-0.266-0.084-0.377-0.118v-0.999c2.863-1.359,4.753-4.534,4.753-8.073  c0-4.833-3.486-8.766-7.772-8.766c-4.285,0-7.771,3.933-7.771,8.766c0,3.538,1.89,6.713,4.753,8.073v0.999  c-0.108,0.033-0.231,0.071-0.366,0.114c-0.099,0.031-0.21,0.067-0.321,0.104c-0.044,0.015-0.083,0.026-0.129,0.042  c-0.111,0.036-0.232,0.077-0.354,0.118c-0.058,0.019-0.111,0.037-0.171,0.058c-0.122,0.041-0.25,0.086-0.381,0.131  c-0.068,0.024-0.136,0.048-0.207,0.072c-0.128,0.045-0.259,0.093-0.393,0.141c-0.085,0.031-0.169,0.062-0.256,0.094  c-0.131,0.048-0.262,0.098-0.397,0.148c-0.093,0.035-0.187,0.071-0.282,0.107c-0.137,0.053-0.273,0.106-0.414,0.162  c-0.098,0.039-0.195,0.078-0.294,0.118c-0.14,0.057-0.278,0.113-0.42,0.173c-0.105,0.044-0.212,0.09-0.318,0.136  c-0.137,0.059-0.273,0.117-0.411,0.178c-0.114,0.051-0.228,0.104-0.342,0.155c-0.13,0.06-0.26,0.118-0.39,0.18  c-0.138,0.065-0.274,0.134-0.412,0.201c-0.121,0.06-0.243,0.118-0.363,0.18c-0.217,0.111-0.431,0.224-0.641,0.34  c-0.087,0.048-0.17,0.098-0.255,0.146c-0.144,0.081-0.287,0.163-0.426,0.247c-0.091,0.055-0.177,0.111-0.265,0.167  c-0.127,0.08-0.254,0.161-0.375,0.243c-0.088,0.059-0.17,0.119-0.254,0.179c-0.114,0.082-0.228,0.163-0.335,0.246  c-0.08,0.063-0.156,0.125-0.233,0.188C58.026,30.435,57.961,30.483,57.903,30.533z M16.941,24.14  c-0.968-1.545-1.476-3.313-1.476-5.161c0-5.378,4.375-9.754,9.753-9.754c5.379,0,9.755,4.376,9.755,9.754  c0,1.848-0.508,3.615-1.476,5.16c-0.224-0.177-0.471-0.348-0.731-0.513c-0.068-0.043-0.144-0.082-0.213-0.124  c-0.213-0.128-0.428-0.254-0.653-0.373c-0.112-0.06-0.226-0.114-0.34-0.172c-0.193-0.097-0.386-0.191-0.583-0.282  c-0.124-0.058-0.244-0.11-0.367-0.164c-0.192-0.085-0.381-0.165-0.569-0.243c-0.12-0.049-0.236-0.096-0.354-0.143  c-0.19-0.074-0.371-0.144-0.552-0.211c-0.104-0.039-0.207-0.077-0.308-0.113c-0.191-0.069-0.367-0.13-0.539-0.188  c-0.071-0.024-0.146-0.052-0.214-0.073c-0.228-0.076-0.434-0.143-0.605-0.196v-0.313c1.899-0.978,3.143-3.118,3.143-5.496  c0-3.336-2.42-6.05-5.394-6.05c-2.973,0-5.392,2.714-5.392,6.05c0,2.377,1.243,4.519,3.142,5.496v0.313  c-0.17,0.053-0.375,0.119-0.601,0.194c-0.075,0.025-0.158,0.055-0.238,0.082c-0.164,0.056-0.329,0.113-0.511,0.178  c-0.108,0.039-0.219,0.081-0.333,0.124c-0.171,0.063-0.343,0.129-0.523,0.2c-0.125,0.049-0.248,0.1-0.377,0.152  c-0.18,0.073-0.359,0.15-0.542,0.23c-0.131,0.058-0.26,0.114-0.391,0.175c-0.188,0.087-0.371,0.177-0.556,0.27  c-0.123,0.062-0.244,0.12-0.364,0.184c-0.212,0.112-0.414,0.231-0.614,0.352c-0.082,0.049-0.17,0.095-0.249,0.146  C17.41,23.793,17.164,23.964,16.941,24.14z M25.219,28.732c-2.874,0-5.53-1.226-7.385-3.384c0.013-0.011,0.024-0.021,0.038-0.031  c0.168-0.135,0.357-0.268,0.563-0.397c0.036-0.023,0.073-0.046,0.11-0.069c0.21-0.129,0.433-0.257,0.667-0.381  c0.037-0.02,0.076-0.038,0.114-0.058c0.242-0.126,0.492-0.249,0.75-0.367c0.021-0.009,0.042-0.018,0.063-0.027  c0.247-0.112,0.497-0.22,0.746-0.323c0.045-0.019,0.09-0.038,0.135-0.056c0.245-0.101,0.487-0.194,0.726-0.284  c0.059-0.022,0.118-0.045,0.177-0.066c0.226-0.083,0.445-0.162,0.653-0.234c0.059-0.021,0.115-0.04,0.172-0.059  c0.204-0.069,0.399-0.135,0.576-0.19c0.037-0.012,0.07-0.021,0.105-0.033c0.184-0.057,0.356-0.109,0.496-0.149l0.544-0.156v-2.433  l-0.478-0.186c-1.594-0.623-2.664-2.356-2.664-4.314c0-2.509,1.746-4.55,3.892-4.55c2.146,0,3.894,2.041,3.894,4.55  c0,1.958-1.071,3.692-2.665,4.314l-0.478,0.186v2.433l0.544,0.156c0.14,0.04,0.313,0.093,0.496,0.149  c0.035,0.012,0.068,0.021,0.105,0.033c0.176,0.056,0.372,0.121,0.576,0.19c0.057,0.019,0.113,0.038,0.172,0.059  c0.209,0.072,0.428,0.15,0.654,0.234c0.059,0.021,0.118,0.044,0.178,0.066c0.236,0.09,0.479,0.184,0.723,0.283  c0.047,0.019,0.093,0.039,0.139,0.058c0.248,0.103,0.495,0.209,0.739,0.32c0.024,0.011,0.048,0.021,0.072,0.032  c0.254,0.116,0.502,0.238,0.742,0.362c0.04,0.021,0.08,0.04,0.119,0.061c0.233,0.124,0.455,0.25,0.664,0.379  c0.038,0.023,0.076,0.047,0.113,0.071c0.204,0.13,0.392,0.262,0.56,0.395c0.014,0.011,0.026,0.022,0.04,0.033  C30.749,27.507,28.093,28.732,25.219,28.732z M30.331,86.955c-7.435,0-14.28-3.321-18.881-9.136c0.087-0.087,0.18-0.173,0.273-0.26  c0.032-0.029,0.062-0.059,0.094-0.087c0.124-0.11,0.254-0.22,0.388-0.328c0.02-0.016,0.036-0.031,0.056-0.047  c0.469-0.377,0.995-0.745,1.563-1.104c0.023-0.015,0.048-0.028,0.07-0.043c0.166-0.104,0.334-0.206,0.506-0.308  c0.049-0.029,0.101-0.058,0.15-0.087c0.148-0.086,0.297-0.173,0.449-0.257c0.063-0.035,0.126-0.069,0.188-0.104  c0.143-0.078,0.285-0.156,0.431-0.233c0.072-0.038,0.146-0.075,0.218-0.113c0.138-0.071,0.275-0.143,0.415-0.213  c0.082-0.042,0.166-0.082,0.249-0.123c0.133-0.066,0.265-0.132,0.398-0.196c0.084-0.04,0.169-0.08,0.253-0.12  c0.136-0.064,0.271-0.129,0.408-0.191c0.086-0.04,0.173-0.079,0.26-0.118c0.132-0.061,0.264-0.12,0.396-0.179  c0.093-0.042,0.185-0.082,0.277-0.122c0.13-0.058,0.261-0.114,0.391-0.17c0.091-0.039,0.181-0.077,0.271-0.116  c0.131-0.055,0.261-0.109,0.391-0.164c0.09-0.037,0.179-0.073,0.267-0.109c0.133-0.054,0.264-0.107,0.395-0.16  c0.087-0.035,0.173-0.069,0.259-0.104c0.13-0.051,0.259-0.103,0.387-0.152c0.088-0.034,0.175-0.068,0.262-0.102  c0.125-0.048,0.249-0.096,0.372-0.143c0.084-0.032,0.167-0.063,0.25-0.095c0.129-0.048,0.258-0.096,0.384-0.143  c0.073-0.027,0.146-0.054,0.218-0.08c0.13-0.048,0.257-0.094,0.383-0.14c0.068-0.024,0.137-0.049,0.204-0.073  c0.131-0.047,0.26-0.092,0.387-0.137c0.057-0.02,0.112-0.04,0.168-0.059c0.134-0.047,0.264-0.092,0.392-0.136  c0.048-0.017,0.096-0.033,0.143-0.049c0.128-0.044,0.254-0.087,0.376-0.128c0.042-0.015,0.085-0.028,0.126-0.042  c0.128-0.043,0.252-0.084,0.372-0.124c0.03-0.01,0.062-0.021,0.091-0.03c0.133-0.043,0.26-0.084,0.382-0.124  c0.012-0.004,0.025-0.008,0.037-0.012c0.962-0.31,1.567-0.484,1.595-0.492l0.544-0.155v-4.285l-0.478-0.187  c-4.159-1.621-6.954-6.102-6.954-11.148c0-6.495,4.588-11.779,10.227-11.779s10.226,5.284,10.226,11.779  c0,5.047-2.794,9.527-6.953,11.148l-0.478,0.187v4.285l0.544,0.155c0.027,0.008,0.629,0.182,1.59,0.491  c0.018,0.005,0.036,0.011,0.054,0.017c0.118,0.038,0.24,0.078,0.368,0.12c0.031,0.01,0.064,0.021,0.096,0.031  c0.119,0.039,0.241,0.08,0.368,0.122c0.042,0.015,0.085,0.028,0.127,0.043c0.121,0.041,0.245,0.083,0.373,0.127  c0.051,0.017,0.104,0.035,0.155,0.053c0.122,0.042,0.245,0.085,0.371,0.129c0.064,0.022,0.129,0.045,0.194,0.068  c0.117,0.041,0.236,0.083,0.357,0.126c0.077,0.028,0.156,0.057,0.235,0.085c0.115,0.042,0.232,0.084,0.351,0.128  c0.081,0.029,0.162,0.06,0.244,0.09c0.12,0.044,0.241,0.089,0.363,0.135c0.088,0.033,0.176,0.066,0.265,0.101  c0.117,0.044,0.234,0.089,0.353,0.135c0.097,0.037,0.194,0.075,0.291,0.113c0.113,0.044,0.228,0.089,0.343,0.135  c0.103,0.04,0.206,0.082,0.31,0.123c0.111,0.045,0.223,0.091,0.335,0.137c0.108,0.044,0.216,0.088,0.325,0.134  c0.108,0.045,0.217,0.091,0.326,0.137c0.113,0.048,0.226,0.096,0.339,0.145c0.105,0.045,0.211,0.091,0.315,0.137  c0.116,0.051,0.232,0.102,0.349,0.153c0.105,0.047,0.211,0.096,0.316,0.144c0.114,0.051,0.229,0.103,0.342,0.155  c0.106,0.05,0.212,0.1,0.317,0.149c0.113,0.054,0.227,0.106,0.339,0.161c0.104,0.05,0.207,0.102,0.312,0.152  c0.111,0.056,0.224,0.11,0.334,0.166c0.104,0.053,0.207,0.106,0.311,0.16c0.107,0.056,0.216,0.11,0.322,0.167  c0.102,0.054,0.2,0.108,0.3,0.162c0.107,0.059,0.215,0.116,0.32,0.175c0.096,0.054,0.188,0.108,0.283,0.162  c0.104,0.061,0.211,0.12,0.313,0.181c0.097,0.058,0.189,0.115,0.284,0.174c0.097,0.059,0.195,0.117,0.289,0.177  c0.112,0.07,0.22,0.143,0.329,0.214c0.071,0.048,0.146,0.095,0.217,0.143c0.176,0.119,0.347,0.239,0.512,0.359  c0.06,0.045,0.115,0.089,0.174,0.134c0.104,0.079,0.21,0.157,0.31,0.237c0.06,0.047,0.113,0.096,0.171,0.143  c0.093,0.078,0.187,0.155,0.274,0.232c0.057,0.051,0.107,0.101,0.161,0.151c0.073,0.067,0.146,0.136,0.216,0.204  C44.612,83.634,37.766,86.955,30.331,86.955z M50.114,76.604c-0.013-0.012-0.027-0.022-0.04-0.034  c-0.104-0.099-0.225-0.194-0.336-0.291c-0.162-0.141-0.32-0.281-0.495-0.42c-0.13-0.102-0.271-0.201-0.408-0.302  c-0.176-0.129-0.349-0.259-0.534-0.386c-0.15-0.103-0.309-0.203-0.465-0.304c-0.187-0.12-0.372-0.241-0.566-0.358  c-0.166-0.102-0.339-0.2-0.511-0.3c-0.195-0.113-0.391-0.227-0.592-0.337c-0.18-0.1-0.362-0.195-0.546-0.292  c-0.202-0.106-0.402-0.212-0.607-0.315c-0.189-0.095-0.378-0.188-0.569-0.28c-0.206-0.1-0.411-0.198-0.618-0.295  c-0.194-0.091-0.389-0.18-0.584-0.269c-0.204-0.092-0.408-0.183-0.613-0.272c-0.198-0.087-0.396-0.172-0.594-0.256  s-0.395-0.166-0.592-0.247c-0.202-0.083-0.401-0.165-0.601-0.244c-0.188-0.075-0.372-0.148-0.558-0.221  c-0.201-0.078-0.399-0.155-0.596-0.229c-0.178-0.067-0.35-0.132-0.522-0.196c-0.193-0.071-0.385-0.143-0.571-0.21  c-0.165-0.06-0.32-0.115-0.479-0.172c-0.185-0.065-0.369-0.132-0.546-0.192c-0.145-0.051-0.277-0.096-0.416-0.143  c-0.174-0.06-0.349-0.119-0.512-0.174c-0.121-0.04-0.228-0.075-0.342-0.112c-0.162-0.053-0.326-0.107-0.474-0.155  c-0.095-0.03-0.174-0.055-0.263-0.083c-0.143-0.045-0.29-0.093-0.415-0.132c-0.199-0.062-0.375-0.115-0.523-0.16v-2.146  c4.465-1.989,7.431-6.88,7.431-12.347c0-7.322-5.26-13.279-11.726-13.279s-11.727,5.957-11.727,13.279  c0,5.467,2.966,10.357,7.432,12.347v2.146c-0.147,0.045-0.322,0.098-0.521,0.159c-0.148,0.047-0.322,0.103-0.497,0.158  c-0.062,0.02-0.112,0.035-0.177,0.056c-0.17,0.055-0.358,0.117-0.547,0.179c-0.089,0.029-0.17,0.056-0.263,0.087  c-0.183,0.061-0.377,0.127-0.573,0.194c-0.119,0.041-0.232,0.079-0.356,0.122c-0.19,0.065-0.39,0.137-0.59,0.208  c-0.145,0.052-0.285,0.102-0.435,0.155c-0.198,0.072-0.402,0.147-0.607,0.225c-0.162,0.06-0.322,0.119-0.487,0.182  c-0.206,0.079-0.415,0.16-0.626,0.242c-0.175,0.068-0.349,0.137-0.526,0.208c-0.208,0.083-0.417,0.168-0.628,0.255  c-0.188,0.078-0.376,0.156-0.565,0.236c-0.205,0.087-0.409,0.175-0.615,0.266c-0.198,0.086-0.396,0.174-0.594,0.264  c-0.201,0.091-0.4,0.182-0.601,0.275c-0.202,0.095-0.402,0.191-0.604,0.288c-0.194,0.095-0.388,0.189-0.58,0.286  c-0.202,0.103-0.4,0.206-0.599,0.311c-0.187,0.098-0.371,0.195-0.554,0.296c-0.199,0.109-0.392,0.222-0.586,0.333  c-0.173,0.101-0.348,0.2-0.516,0.303c-0.192,0.117-0.375,0.236-0.56,0.355c-0.159,0.103-0.319,0.204-0.472,0.308  c-0.183,0.125-0.354,0.253-0.526,0.38c-0.139,0.103-0.283,0.204-0.415,0.309c-0.173,0.136-0.328,0.274-0.488,0.413  c-0.114,0.099-0.236,0.196-0.343,0.296c-0.013,0.012-0.027,0.022-0.039,0.034c-2.815-4.041-4.298-8.77-4.298-13.731  c0-13.277,10.803-24.08,24.081-24.08c13.277,0,24.08,10.803,24.08,24.08C54.411,67.836,52.929,72.564,50.114,76.604z M78.542,88.98  c-3.339,0-6.423-1.438-8.557-3.969c0.019-0.015,0.037-0.03,0.056-0.045c0.193-0.159,0.409-0.317,0.648-0.472  c0.03-0.02,0.062-0.039,0.093-0.058c0.253-0.161,0.523-0.319,0.812-0.473c0.009-0.004,0.018-0.009,0.026-0.014  c0.298-0.157,0.609-0.311,0.927-0.458c0.016-0.008,0.03-0.015,0.046-0.022c0.312-0.144,0.628-0.28,0.944-0.411  c0.036-0.016,0.071-0.03,0.107-0.045c0.306-0.126,0.609-0.245,0.904-0.356c0.041-0.016,0.082-0.031,0.123-0.046  c0.29-0.108,0.572-0.21,0.839-0.303c0.037-0.013,0.073-0.024,0.11-0.037c0.264-0.091,0.514-0.174,0.738-0.245  c0.024-0.008,0.046-0.014,0.069-0.021c0.229-0.072,0.438-0.136,0.61-0.185l0.544-0.156v-2.621l-0.478-0.186  c-1.854-0.725-3.1-2.736-3.1-5.008c0-2.914,2.035-5.284,4.536-5.284s4.535,2.37,4.535,5.284c0,2.271-1.246,4.283-3.101,5.008  l-0.478,0.186v2.621l0.544,0.156c0.166,0.048,0.368,0.108,0.588,0.178c0.035,0.011,0.066,0.021,0.104,0.032  c0.213,0.068,0.45,0.146,0.699,0.231c0.052,0.018,0.104,0.035,0.156,0.054c0.256,0.089,0.524,0.186,0.802,0.289  c0.053,0.02,0.105,0.039,0.159,0.06c0.287,0.108,0.581,0.224,0.877,0.346c0.044,0.018,0.088,0.036,0.131,0.055  c0.31,0.128,0.62,0.263,0.926,0.403c0.021,0.01,0.041,0.02,0.063,0.029c0.309,0.144,0.61,0.292,0.899,0.445  c0.016,0.008,0.032,0.016,0.048,0.024c0.282,0.15,0.547,0.306,0.797,0.463c0.035,0.022,0.073,0.044,0.107,0.067  c0.234,0.151,0.444,0.305,0.635,0.46c0.022,0.019,0.043,0.036,0.064,0.054C84.961,87.542,81.879,88.98,78.542,88.98z M87.991,83.802  c-0.006-0.005-0.014-0.01-0.021-0.015c-0.219-0.176-0.461-0.347-0.715-0.514c-0.045-0.029-0.088-0.059-0.134-0.087  c-0.252-0.161-0.518-0.316-0.793-0.467c-0.051-0.027-0.102-0.055-0.152-0.082c-0.282-0.151-0.57-0.297-0.862-0.436  c-0.036-0.017-0.071-0.033-0.107-0.05c-0.302-0.141-0.604-0.276-0.904-0.403c-0.011-0.005-0.021-0.009-0.03-0.014  c-0.308-0.13-0.609-0.25-0.903-0.364c-0.038-0.014-0.075-0.028-0.112-0.043c-0.28-0.107-0.549-0.206-0.804-0.298  c-0.04-0.014-0.078-0.027-0.118-0.042c-0.25-0.088-0.483-0.168-0.695-0.238c-0.026-0.009-0.048-0.016-0.073-0.024  c-0.213-0.07-0.408-0.133-0.567-0.183v-0.5c2.16-1.081,3.578-3.502,3.578-6.192c0-3.741-2.707-6.784-6.035-6.784  s-6.036,3.043-6.036,6.784c0,2.69,1.418,5.111,3.577,6.192v0.5c-0.162,0.051-0.361,0.115-0.58,0.187  c-0.019,0.007-0.034,0.012-0.054,0.019c-0.217,0.071-0.457,0.154-0.715,0.245c-0.032,0.012-0.063,0.022-0.095,0.034  c-0.262,0.093-0.537,0.194-0.826,0.306c-0.027,0.01-0.055,0.021-0.082,0.031c-0.601,0.232-1.24,0.499-1.873,0.796  c-0.027,0.014-0.055,0.025-0.083,0.039c-0.298,0.141-0.592,0.29-0.879,0.443c-0.046,0.024-0.091,0.049-0.136,0.073  c-0.28,0.153-0.55,0.312-0.807,0.476c-0.041,0.025-0.079,0.052-0.119,0.077c-0.259,0.17-0.504,0.343-0.726,0.521  c-0.006,0.005-0.013,0.009-0.018,0.013c-1.153-1.798-1.759-3.865-1.759-6.03c0-6.18,5.028-11.208,11.209-11.208  c6.18,0,11.208,5.028,11.208,11.208C89.75,79.935,89.145,82.002,87.991,83.802z">
</path>
</svg>
